<svg width="450" height="88" viewBox="0 0 450 88" fill="none" xmlns="http://www.w3.org/2000/svg">
<path d="M409.707 29.2424C411.83 31.7904 413.011 32.6332 415.617 34.7012C415.279 35.1392 414.583 36.0416 414.517 36.5451C413.889 41.4164 414.179 47.3824 414.205 52.2718C415.911 54.9108 418.086 58.091 417.997 61.3272C417.797 68.5197 410.316 73.3645 403.626 71.8895C401.741 71.4801 400.1 70.3279 399.069 68.6912C395.945 63.7757 400.077 59.4325 403.059 62.4133C405.026 66.6841 400.202 65.9837 399.22 67.0427C399.1 67.4885 399.081 67.6747 399.355 68.0988C402.824 73.4545 411.144 71.2636 412.824 65.4624C414.275 60.4522 409.418 57.7014 409.005 53.6421L409.004 53.6413L408.703 53.5028C408.114 53.7769 407.544 54.5635 407.108 55.0827L406.867 54.5872L406.218 54.4783C407.396 54.1778 407.41 53.6885 408.422 53.0408C408.483 52.9539 408.53 52.8648 408.583 52.772C409.293 51.5127 408.864 38.1618 408.854 35.7209C408.069 34.8457 406.932 33.9953 405.983 33.2872C405.463 33.5069 404.116 34.0982 404.063 34.7514C403.647 39.879 403.979 45.156 403.916 50.3165C403.895 52.1025 404.614 53.5909 406.218 54.4792L406.867 54.5885L407.108 55.0835C406.016 56.452 404.283 57.6554 402.869 59.4845C399.992 57.5675 398.61 55.5907 398.671 52.0584C398.743 47.725 398.436 43.2107 398.89 38.9085C399.165 36.3151 403.467 34.0262 405.556 32.6113L405.893 32.8779L405.555 32.6109C407.195 31.4281 408.207 30.6398 409.707 29.2424Z" fill="#0A1628"/>
<path d="M142.987 23.241C143.599 18.0062 148.986 16.2536 153.629 16.9292C153.63 16.929 153.631 16.9294 153.632 16.9292C156.609 17.2035 159.582 18.3611 161.53 20.7229C163.029 22.5425 163.758 24.8808 163.561 27.2352C163.301 30.0259 161.494 32.5802 159.424 34.3751C157.849 35.7407 156.268 36.103 154.294 36.5567C166.407 39.4223 165.809 52.6234 156.322 58.446C155.666 58.8484 155.172 59.1835 154.408 59.3662C154.102 59.5374 153.786 59.6912 153.462 59.827C152.432 60.2503 151.355 60.1279 150.288 60.1999C142.098 60.751 144.808 48.8852 135.954 52.7163C134.465 54.761 134.077 55.9559 134.851 58.4284L134.959 58.6037C137.229 62.1843 139.187 59.6464 140.614 60.3006C140.565 60.8758 140.635 60.6758 140.181 61.133C138.38 61.746 135.782 60.9696 134.69 59.3555C134.349 58.6662 133.825 57.25 133.515 56.4872C134.708 52.5321 135.925 51.088 139.736 49.4455C148.786 45.5456 148.43 56.6884 153.199 58.7675C157.267 58.4516 156.639 54.5245 156.578 51.2367C156.507 47.4499 157.021 42.3082 155.872 38.7834C154.796 37.6875 154.507 37.5634 153.105 37.1105C152.703 36.9729 152.299 37.1262 151.604 36.9236L151.45 36.8747C152.031 37.0765 152.418 37.0298 152.753 37.0488C152.784 37.0505 152.814 37.053 152.843 37.056C152.903 37.0621 152.961 37.0714 153.019 37.0856C153.048 37.0927 153.077 37.1006 153.105 37.1105C149.486 37.5441 149.913 38.5283 148.003 40.0272L147.754 39.7653C147.83 38.6354 150.352 37.2307 151.287 36.8134L152.418 36.4067C148.985 36.1378 145.396 31.9574 148.102 29.3663C148.835 28.6702 149.816 28.2996 150.824 28.338C152.806 28.4002 153.671 30.0359 153.693 31.8244C153.718 33.7976 150.509 33.343 150.215 34.9481C150.27 35.0248 150.331 35.0968 150.398 35.1633C151.05 35.8055 152.535 35.9855 153.422 35.9875C153.837 35.9278 154.247 35.836 154.647 35.7132C157.798 34.7441 156.594 22.2279 155.8 19.6633C154.194 18.3834 153.863 18.0997 151.871 17.7003C149.863 17.7843 148.379 17.7626 146.56 18.7907C143.533 20.5011 143.757 23.5008 142.942 26.459C142.919 25.3849 142.862 24.3113 142.987 23.241Z" fill="#0A1628"/>
<path fill-rule="evenodd" clip-rule="evenodd" d="M221.185 23.9015C221.961 22.2443 224.938 16.2262 227.34 17.1461C226.973 17.7325 225.624 19.8656 225.436 20.3692C223.818 24.659 224.324 31.0766 224.362 35.7951C225.126 34.6627 228.881 31.1472 230.009 30.3032C230.715 29.637 230.507 29.6497 231.319 29.4781C232.928 29.8273 234.017 33.1139 233.999 34.5251C233.917 40.6833 234.534 48.3461 233.968 54.3725C233.285 55.2643 232.801 55.9348 231.807 56.5194L228.127 60.6229L227.96 60.6122C228.266 60.0363 228.801 58.935 228.811 58.2591C228.899 52.7847 228.872 47.2667 228.87 41.7927C228.87 39.8882 229.203 34.6856 227.677 33.4793C226.699 33.6334 225.113 35.3993 224.368 36.1594C224.219 40.821 224.167 47.2864 224.534 51.9804C224.564 52.3636 225.246 53.3936 225.499 53.775C223.432 55.7975 222.754 56.4696 221.558 59.0598C220.969 56.5804 220.542 55.1509 217.985 54.1796L217.243 54.2272C216.452 54.279 215.559 54.3576 214.957 54.5953L214.957 54.5945C212.641 56.0385 212.643 56.9793 211.934 59.5437C209.975 58.6048 207.555 57.0876 206.441 55.1508C205.457 53.4395 205.532 39.7377 206.139 37.5678C206.693 35.5891 213.859 30.5622 215.908 29.407C216.832 31.206 217.871 32.976 218.877 34.7325C217.491 35.5666 216.465 36.433 215.217 37.4457C214.727 36.5038 213.005 33.3328 212.143 33.0305L211.778 33.2602C210.672 35.1689 211.42 47.557 211.308 50.4935C211.237 52.3676 212.758 53.5949 214.553 53.9841L214.554 53.9846C215.429 53.9237 216.256 53.9091 217.086 53.6151C218.44 52.9978 219.165 51.3699 219.128 49.9307C218.906 41.4138 219.833 32.3908 218.618 24.0176C218.475 23.0385 216.938 21.7742 216.299 21.0435L216.525 20.9517C218.736 21.1998 219.686 22.3602 221.185 23.9015Z" fill="#0A1628"/>
<path d="M283.737 59.6298C286.069 60.2231 286.467 59.0533 287.937 59.3538C287.527 60.6995 284.196 60.2545 283.145 59.9924L283.737 59.6298Z" fill="#0A1628"/>
<path d="M38.0968 18.191C44.6021 13.4045 49.5535 21.4006 50.6224 21.5647L51.1666 20.7314H51.1675C51.8736 19.5757 52.152 19.3823 53.1544 18.4525L53.6722 18.951C52.7575 19.5212 52.3905 19.8869 51.7389 20.7644L51.7381 20.764C49.8839 24.7326 51.1224 36.4331 50.8161 41.211C50.7448 42.3303 51.0085 46.2425 50.5202 47.1152C47.6034 52.3242 44.0382 54.0699 41.6721 60.0902C40.2264 57.01 37.2518 52.3234 33.1511 56.4688C32.4283 57.1998 32.2323 58.6615 32.0303 59.6954C31.8869 56.0442 32.0944 52.1524 36.2465 50.5908C39.7851 49.2602 41.9906 51.5623 44.9553 53.0073C45.671 52.2506 45.3812 22.8531 45.3199 19.3461C44.5267 18.0697 44.2004 17.6614 42.6788 17.6038C42.0904 17.5816 40.6937 17.6648 40.355 18.1816C37.6389 22.3796 44.2174 27.7272 43.8707 32.3649C43.5236 37.0069 38.699 39.4851 35.5034 35.4967C34.8592 34.6925 33.992 32.7796 34.0633 31.7717C34.4334 31.9588 35.3355 35.5203 37.4844 33.9177C39.962 32.0701 36.0596 28.5671 35.4702 26.5807C35.1176 25.3922 35.019 24.316 35.2015 23.0858C35.4726 21.1291 36.5163 19.3646 38.0968 18.191Z" fill="#0A1628"/>
<path d="M281.469 52.6752C283.547 49.2621 288.514 46.542 292.359 48.3732C296.095 50.1521 296.742 56.2872 299.654 57.7568C300.148 58.3065 300.636 57.9149 301.254 58.3461C297.744 60.7721 291.93 58.5394 290.548 54.7908C290.238 53.9503 289.167 52.5092 288.502 51.8848C286.841 50.3235 283.655 50.9926 282.167 52.508C281.28 53.4258 281.396 55.56 281.539 56.8481C282.002 58.1378 282.426 59.008 283.737 59.6298L283.145 59.992C282.067 59.2119 281.827 58.8278 281.272 57.6788L281.174 57.3535C280.701 55.7314 280.55 54.1856 281.469 52.6752Z" fill="#0A1628"/>
<path d="M248.122 29.4259C249.039 31.0384 251.812 36.1609 252.444 37.6582C251.336 38.699 249.628 39.8646 248.365 40.758L248.365 40.7584C247.055 41.7798 244.91 43.542 243.584 44.3532L243.602 43.619C244.461 43.1282 246.939 41.0494 247.655 40.3469L247.523 40.1682C246.167 38.2793 244.952 35.0847 243.584 33.1475C243.578 35.7123 243.408 41.2852 243.602 43.6185L243.584 44.3528C243.576 45.9252 243.551 47.5177 243.539 49.0889C243.517 51.61 243.537 52.8436 245.616 54.4428C245.616 54.4428 245.617 54.4423 245.618 54.4423C247.896 53.9963 247.195 53.2312 248.959 52.2804C248.726 53.1552 247.745 54.4297 247.138 55.108L247.057 54.6871L247.057 54.6866L247.138 55.108C245.84 56.5585 244.359 57.8848 242.89 59.5767C241.196 58.5851 239.505 57.0462 238.627 55.2537C237.672 53.3057 237.898 39.2549 238.643 37.0749C239.243 35.3284 246.433 30.2611 248.122 29.4259Z" fill="#0A1628"/>
<path d="M193.117 29.1344C195.892 30.5209 196.309 31.4325 196.732 34.1646L196.818 34.736C197.189 34.3939 197.558 34.013 197.916 33.6546L198.412 33.9752C197.867 34.4691 197.721 34.6154 197.044 34.8898L197.043 34.8894C196.958 35.0312 196.752 35.4421 196.749 35.687C196.674 41.533 196.559 47.5405 196.8 53.3734C196.92 53.5257 197.017 53.6499 197.093 53.7463L197.508 53.766C198.234 53.494 198.841 52.8439 199.416 52.3083L199.526 52.3576C198.728 54.5885 195.445 56.7339 193.847 59.5621C192.913 57.0324 191.894 55.3736 189.675 53.7278C189.748 53.6308 190.877 52.1123 190.898 51.9032C191.423 46.9158 191.366 40.484 190.97 35.4749C190.928 34.9417 189.887 34.5397 189.571 34.4076C189.113 34.7177 188.69 34.9956 188.218 35.2824L187.937 35.2027C188.238 34.5092 189.075 33.8277 189.645 33.2937C190.967 31.8936 192.171 30.8196 193.117 29.1344Z" fill="#0A1628"/>
<path fill-rule="evenodd" clip-rule="evenodd" d="M322.847 29.137C324.255 31.9707 325.979 34.5179 327.288 37.5202C325.826 38.971 324.41 39.853 322.678 40.9016L322.678 40.9007C321.748 41.8718 319.751 43.2827 318.598 44.078L318.531 43.5393C319.535 42.5595 321.139 41.6526 322.347 40.5167C321.94 38.3279 319.374 35.1209 318.464 32.8029C318.448 34.2837 318.237 42.9117 318.531 43.5401L318.597 44.0789C318.254 45.0992 318.135 51.5682 318.907 52.8106C319.423 53.6353 319.69 53.8212 320.529 54.2563L320.752 54.2087C322.959 53.704 322.389 52.7577 323.627 52.2958C323.462 53.0728 322.86 53.9783 322.319 54.5885L322.212 54.7064C321.298 56.1599 319.394 57.0302 317.896 59.5561C314.925 57.5967 313.078 55.9534 313.054 52.1745C313.037 48.1112 312.962 43.9964 313.064 39.938C313.135 37.1305 313.945 35.7104 316.19 34.1025C318.396 32.5233 320.843 30.9444 322.847 29.137Z" fill="#0A1628"/>
<path fill-rule="evenodd" clip-rule="evenodd" d="M118.321 29.2578C119.631 31.4349 121.445 35.0785 122.732 37.4397C121.671 38.5412 119.77 39.8348 118.489 40.7601L118.489 40.7605C117.866 41.2391 114.594 43.8669 114.14 43.9944C114.125 43.6974 114.086 43.6549 113.923 43.4072C114.939 42.8719 116.756 41.1771 117.912 40.3701L117.971 40.4104L117.911 40.3697C116.51 37.9915 115.184 35.3284 113.904 32.8642C113.891 34.6933 113.727 42.1665 113.923 43.4072C114.086 43.6547 114.125 43.6971 114.14 43.994C113.631 45.0209 113.7 50.7617 114.128 52.1385C114.64 53.7835 115.662 54.4594 117.377 54.012L117.731 53.5238C118.124 52.982 118.616 52.3422 119.057 52.1724C119.179 52.9565 118.144 54.0902 117.653 54.6888C115.924 56.4852 114.77 57.6337 113.145 59.5441C111.18 58.2726 108.365 55.8133 108.44 53.1732C108.554 49.1664 107.436 39.3431 109.388 36.1319C110.106 34.9523 116.797 30.2841 118.321 29.2578ZM117.592 54.2546C117.595 54.2594 117.598 54.2641 117.601 54.2687C117.588 54.2485 117.571 54.227 117.547 54.1997L117.592 54.2546Z" fill="#0A1628"/>
<path d="M53.154 18.4521C54.4229 17.3462 55.8292 16.4051 57.6014 16.5602C64.3473 17.1505 60.7871 26.5745 61.9663 30.8634C62.0892 31.3108 63.7327 32.3817 64.1645 32.6512C63.6325 33.2581 61.4408 35.0967 61.3314 35.6592C60.4513 40.1965 60.9534 45.2292 60.8991 49.8643C60.8739 52.0136 61.3507 52.9231 63.2821 53.784L63.8962 53.9906L63.9456 54.4779C62.5712 56.3275 61.8078 57.4239 60.8131 59.5034C58.4542 57.5992 55.7637 55.5838 55.5374 52.2765C55.2394 47.9201 55.1098 43.1651 55.6281 38.8331C55.9718 35.9611 59.0011 34.2932 61.2027 32.9101C51.9594 31.6031 58.054 22.1122 55.2585 19.1284C54.6598 18.7608 54.3752 18.8466 53.6718 18.9505L53.154 18.4521Z" fill="#0A1628"/>
<path d="M391.278 29.2896C392.237 31.2049 393.608 32.882 395.29 34.1985C393.249 37.4336 394.17 41.3631 393.972 45.0741C393.847 47.4533 393.957 50.1527 394.125 52.529C394.253 53.5462 394.784 53.6972 395.627 53.8993C395.923 53.4787 396.229 53.1725 396.582 52.8016L396.855 52.8115C396.855 53.5497 396.531 53.8673 395.949 54.2962L395.858 54.4376C394.885 55.8965 393.012 57.2598 391.572 59.4953C390.088 57.7842 388.829 56.4648 388.741 54.0733C388.523 48.1227 389.094 42.0854 388.613 36.1628C388.543 35.3081 388.045 34.9363 387.392 34.4921L387.413 34.3035L386.731 33.8809C387.772 32.3506 389.857 30.583 391.278 29.2896Z" fill="#0A1628"/>
<path d="M77.4059 29.197C78.7987 31.5295 80.4393 34.9817 81.8427 37.5262C80.7301 38.5261 78.4521 40.2144 77.2113 40.9779L77.0754 40.3928C75.8548 38.5189 73.9943 34.8504 73.0053 32.7763C72.992 35.2453 72.8113 40.9466 72.9848 43.3777L73.0027 43.6027C74.2767 42.7407 75.8526 41.3861 77.0754 40.3928L77.2113 40.9779C76.554 41.5709 73.8069 43.9118 73.1041 44.054C72.8402 46.2536 72.5842 51.3455 73.6794 53.3296C74.1427 54.1688 75.6705 54.022 76.3643 53.4595C76.7492 52.9248 77.1794 52.1677 77.7849 51.9932L77.9054 52.2221C77.6526 52.9727 77.2508 53.3539 76.7322 53.9336C74.7409 55.9246 73.5706 57.0222 72.0424 59.4567C70.3187 58.0941 67.9797 56.441 67.6768 54.0673C67.2081 50.3955 67.5031 46.5689 67.4204 42.8655C67.3877 41.4027 67.3894 37.3681 68.4433 36.2781C70.9646 33.6715 74.4644 31.4033 77.4059 29.197Z" fill="#0A1628"/>
<path d="M259.095 29.3076C261.603 29.5929 262.491 32.7892 262.752 34.8851C264.554 33.0773 266.331 31.2414 268.078 29.3791C269.372 31.3142 270.65 33.2588 271.917 35.2121C270.605 35.9576 268.615 37.7537 267.232 38.7654C266.419 37.62 265.244 35.4189 264.246 34.6314C263.632 34.5986 263.823 34.5823 263.27 34.9768C262.968 35.4966 262.693 36.5016 262.701 37.068C262.74 40.1163 262.291 50.6276 262.852 53.021C263.332 53.6413 263.187 53.4616 264.028 53.7514C265.154 53.4651 265.626 52.8021 266.507 51.9791L266.644 52.1252C265.989 53.7884 263.138 55.6763 261.824 57.0723C261.081 57.8637 260.493 58.5645 259.811 59.4138C259.307 57.3304 257.23 54.9732 255.669 53.5787C256.44 53.0154 256.722 52.6258 257.313 51.8977C257.509 49.4832 258.05 35.7161 256.424 34.7711C255.054 34.4182 254.044 35.4314 252.645 36.174C253.508 35.0848 254.757 34.0673 255.773 33.0755C257.046 31.8316 257.987 30.6934 259.095 29.3076Z" fill="#0A1628"/>
<path d="M180.873 29.257C182.198 31.5021 183.247 32.659 185.026 34.5114C184.654 34.9241 183.824 35.7923 183.526 36.2018C183.342 38.4331 183.022 52.3918 183.907 53.4754C184.018 53.611 184.3 53.6616 184.467 53.7201C185.433 53.5385 186.304 52.6747 187.049 52.0091C186.322 53.7527 182.345 57.4556 180.842 59.3774C180.228 57.7269 179.36 56.867 178.278 55.4839C178.237 54.3766 178.229 52.8992 178.139 51.8256L178.238 51.418C178.204 47.9108 178.456 38.7758 177.954 35.9536L176.324 34.4501C178.34 33.3274 180.113 31.4734 180.873 29.257Z" fill="#0A1628"/>
<path d="M380.909 29.1695C381.313 29.4168 381.697 29.6962 382.056 30.0058C383.405 31.1886 384.248 33.1538 384.372 34.9318L384.566 35.5105L384.636 35.4972C385.374 35.3611 386.156 34.4402 386.731 33.8809L387.413 34.3035L387.392 34.4921C386.55 34.9882 385.98 35.3312 385.193 35.9219L384.566 35.5105L384.566 35.5113L385.193 35.9219C383.713 38.0349 384.662 48.7674 384.607 51.8081C384.598 52.3426 385.078 53.1716 385.552 53.5037C385.58 53.5224 385.608 53.5412 385.635 53.5594C385.501 54.3045 382.527 57.1285 381.505 59.3388C380.85 57.6587 380.648 57.5241 379.795 56.0479C379.368 55.6599 378.328 54.2885 377.654 53.6108C377.875 53.2844 378.82 51.8816 378.85 51.6551C379.215 48.9351 379.413 36.9166 378.556 35.0651C377.087 34.2245 375.454 35.8798 374.324 36.756C376.338 34.1254 378.958 31.9025 380.909 29.1695Z" fill="#0A1628"/>
<path d="M88.4968 29.1807C89.9225 29.8873 91.0423 30.6081 91.5786 32.2213C92.6301 35.3858 90.4948 51.7612 92.8225 52.9718C93.098 53.1151 93.4689 53.1422 93.7742 53.1698C94.1 52.7287 95.7908 51.9171 96.3518 51.6846C96.4624 51.5279 96.5951 51.3403 96.7491 51.1223C96.7784 47.8578 97.001 38.7236 96.5469 36.0287L96.5375 35.9734L95.0236 34.6481C96.8253 33.0739 98.5735 31.661 99.6044 29.419C100.869 31.5711 102.013 32.7763 103.687 34.5705C103.189 35.0615 102.695 35.5556 102.203 36.0527C102.068 38.4349 101.541 52.3228 102.606 53.4878C102.745 53.6408 102.919 53.7725 103.091 53.8868L103.473 54.0441L103.091 53.8864C105.033 52.9497 105.002 52.2664 106.322 50.8745C105.465 53.0698 104.81 53.6173 103.095 55.252C102.899 55.6925 100.4 58.1536 99.6959 59.3015C99.0568 58.2001 97.7041 56.4815 96.9058 55.4466C96.8315 54.6358 96.9577 52.4732 96.6644 51.9345C95.4146 52.5557 94.4467 53.4077 93.7014 53.7797C91.5331 55.5325 90.1602 56.633 88.8222 59.0585C88.0735 56.4234 86.8258 54.9774 84.5544 53.6498C85.3325 52.8663 85.8218 52.2556 86.5077 51.3863C86.6436 49.2854 86.9975 36.6389 86.09 35.6215C85.618 35.0931 84.8514 35.087 84.2014 35.0531L84.1695 33.9447C85.7809 32.3778 87.0779 30.9103 88.4968 29.1807Z" fill="#0A1628"/>
<path d="M358.71 29.2081C359.939 29.8105 361.047 30.593 361.565 31.905C363.226 36.1043 360.712 50.1593 362.891 53.0931H362.892C364.272 53.064 365.454 52.1939 366.698 51.4926C366.698 48.4636 366.885 38.6304 366.449 35.9909L364.806 34.4342C366.667 33.4614 368.591 31.156 369.387 29.2458C370.842 31.7304 371.422 32.5456 373.54 34.5508C373.063 34.9903 372.304 35.6497 371.881 36.1002C371.791 38.4848 371.253 52.256 372.302 53.4222C372.504 53.6482 372.714 53.6435 372.997 53.7038C373.965 53.4621 374.74 52.7161 375.483 52.0481C374.079 54.3345 373.659 54.4627 371.83 56.3497C371.112 57.0892 370.105 58.5532 369.408 59.2295C368.685 58.2131 366.767 55.9349 366.718 54.8431C366.63 54.3401 366.64 52.6747 366.634 52.0845C365.896 52.4416 364.91 53.2317 364.253 53.3837L364.252 53.3832C362.305 54.6259 359.947 56.7725 359.047 58.9621C358.021 56.234 357.131 55.3018 354.8 53.6434C355.109 53.1834 356.108 52.0687 356.508 51.6023C356.88 47.5754 356.7 40.6576 356.514 36.4967C356.469 35.4849 355.696 35.0825 354.882 34.5109C353.88 35.2685 352.864 36.0108 351.839 36.7376C353.992 34.2298 356.48 31.7214 358.71 29.2081Z" fill="#0A1628"/>
<path d="M348.476 22.25C348.588 24.1582 348.382 31.9755 348.762 32.9722C349.335 33.0385 350.164 33.0454 350.525 33.4604C350.184 34.0397 349.227 33.9608 348.599 33.9782V33.979C348.378 36.8836 348.158 51.2873 348.9 53.3421C348.915 53.3892 348.935 53.4354 348.954 53.4814C351.001 53.1584 350.194 52.7226 352.007 51.6829L351.96 51.7155C351.745 51.8645 351.67 51.942 351.492 52.1317L351.635 52.5187L350.597 53.6931C348.784 55.9558 347.278 56.4741 345.382 59.1022C344.492 57.3352 342.864 55.0216 341.378 53.7244C341.807 53.2952 342.228 52.8681 342.534 52.3451C342.758 51.9654 343.007 51.3865 343.015 50.9551C343.062 48.2029 343.446 36.11 342.938 34.1488C342.46 33.8142 341.573 33.771 340.968 33.6949C345.395 29.9764 346.462 27.6021 348.476 22.25Z" fill="#0A1628"/>
<path d="M334.075 29.1961C334.971 31.4454 336.117 32.8027 337.993 34.3468C337.06 34.9694 336.703 35.3684 335.981 36.2348C335.82 38.3444 335.575 51.4053 336.195 52.6546C336.618 53.0857 336.895 53.147 337.461 53.3447L337.775 52.9482C338.121 52.5115 338.549 52.0067 338.934 51.9161C338.951 52.629 338.283 53.4214 337.832 53.9567C335.35 55.9418 334.622 56.5631 332.695 59.0739C331.852 57.0569 330.894 55.1986 329.179 53.7998C329.689 53.235 330.155 52.5209 330.595 51.8908C330.769 49.4096 330.93 36.4506 330.359 34.5954C328.728 34.6219 329.459 35.0678 327.887 35.3673C328 34.7831 329.118 33.9335 329.632 33.466L329.912 33.1732C331.317 31.7354 332.772 30.6778 334.075 29.1961Z" fill="#0A1628"/>
<path d="M169.952 29.1893C173.957 31.1192 173.197 34.6957 173.236 38.4439C173.249 42.2179 173.086 46.008 173.128 49.7803C173.15 51.7464 173.387 53.1817 175.571 53.0639C175.799 52.5292 177.674 51.6972 178.238 51.418L178.139 51.8256C177.497 52.2105 176.178 52.9568 175.672 53.4179C173.353 54.5455 171.817 56.8703 170.41 58.5476C169.885 58.5614 169.512 57.4962 169.194 56.954C168.284 55.4015 167.576 54.5438 165.983 53.6743C166.592 52.9498 167.209 52.2317 167.834 51.5205C168.19 47.2595 167.866 42.5815 167.953 38.2789C168.038 34.1176 166.067 34.8061 163.451 36.2541C165.496 33.9023 167.835 31.5137 169.952 29.1893Z" fill="#0A1628"/>
<path d="M291.54 18.5991C297.303 12.9493 310.462 16.3806 310.458 25.3669C310.454 30.6929 306.166 34.8107 301.236 35.6708C312.623 37.7596 312.75 50.7023 304.413 56.7487C303.903 57.1178 301.84 58.2978 301.254 58.3453C300.636 57.9141 300.148 58.3057 299.654 57.7559C299.767 57.7516 299.883 57.7459 299.997 57.7388C301.926 57.616 302.14 57.3007 303.366 55.897C303.472 54.9312 303.601 52.1664 303.503 51.2444C303.083 47.2574 304.971 38.6466 301.171 36.3973L300.232 36.2134C299.862 35.9407 298.777 35.9988 298.25 35.9905L299.014 35.6048C295.163 35.2597 291.781 29.0303 296.477 27.5772C298.004 27.1042 300.35 27.9433 300.573 29.8896C300.875 32.5074 298.206 32.5993 297.297 33.8804L297.455 34.3961C298.33 34.9166 298.567 35.0525 299.569 35.3189L301.887 34.8028C304.821 31.2469 302.938 27.0583 303.53 22.7691C303.576 22.4426 303.525 21.762 303.491 21.4159C303.36 20.0302 302.689 18.7523 301.627 17.8606C298.824 15.5346 293.752 16.7078 291.65 19.4563C290.24 21.2977 290.436 23.2422 289.893 25.3459C289.83 22.7127 289.52 20.5802 291.54 18.5991Z" fill="#0A1628"/>
<path d="M65.8214 51.9307C65.5129 52.6803 64.6005 54.0203 63.9456 54.4779L63.8962 53.9906L63.2821 53.784L63.3494 53.757C64.8328 53.1647 64.8676 52.2739 65.8214 51.9307Z" fill="#0A1628"/>
<path d="M298.25 35.9905C298.777 35.9988 299.862 35.9407 300.232 36.2134C296.822 36.4823 297.246 36.8739 294.844 39.2308L294.683 39.0705C294.738 37.9644 297.291 35.887 298.25 35.9905Z" fill="#0A1628"/>
<path d="M202.216 29.3367C203.481 31.1134 204.466 32.5013 205.548 34.3866C204.713 35.4713 202.619 37.2823 201.522 38.1867C200.883 37.3015 198.836 34.6777 198.412 33.9752L197.916 33.6546C198.891 32.679 201.275 30.1311 202.216 29.3367Z" fill="#0A1628"/>
<path d="M84.201 35.0527C83.7879 35.4145 82.5817 36.1006 82.0611 36.4148C82.7663 35.4499 83.3524 34.821 84.1695 33.9447L84.201 35.0527Z" fill="#0A1628"/>
<path d="M180.721 17.3655C185.909 18.4813 182.416 23.6777 180.884 26.4813C180.682 26.3184 179.189 23.4682 179.017 22.9911C178.012 20.1971 177.966 18.5893 180.721 17.3655Z" fill="#0A1628"/>
<path d="M171.512 17.5803C172.11 17.5379 172.833 17.6572 173.359 17.936C176.317 19.5038 173.338 24.2611 172.303 26.1954L172.097 26.4084C171.347 26.0635 169.052 20.7844 169.63 19.6247C170.279 18.3209 170.329 18.2751 171.512 17.5803Z" fill="#0A1628"/>
<path d="M333.567 17.1521C339.052 17.618 335.387 23.5058 334.134 26.1414L333.952 26.1641C333.824 25.9782 333.701 25.7883 333.583 25.5945C331.887 22.7715 329.948 19.2731 333.567 17.1521Z" fill="#0A1628"/>
</svg>
