<svg width="210" height="88" viewBox="0 0 210 88" fill="none" xmlns="http://www.w3.org/2000/svg">
<path fill-rule="evenodd" clip-rule="evenodd" d="M145.45 35.4183C150.628 35.075 154.596 38.0883 155.953 42.9958C156.446 44.7785 156.46 46.3095 156.576 48.1403C151.442 48.0509 146.07 48.1224 140.922 48.1334C140.957 50.3716 141.166 52.1796 142.069 54.2577C142.918 56.2615 144.536 57.8398 146.56 58.6382C148.165 59.2601 151.423 59.3216 153.058 58.6754C153.729 58.4107 154.687 57.7068 155.458 57.368C155.69 57.4046 155.857 57.633 156.022 57.8108C156.198 58.0027 156.168 57.9228 156.222 58.1654C156.137 58.4799 155.941 58.7031 155.73 58.9461C151.379 63.9492 142.476 64.5424 137.514 59.9952C129.463 52.6175 132.871 36.1024 145.04 35.4526C145.176 35.4389 145.313 35.4275 145.45 35.4183ZM145.405 37.2839C141.979 37.8068 141.201 43.2221 140.935 46.0702C142.071 46.0083 143.208 45.9713 144.346 45.9599C145.66 45.9573 147.525 45.8951 148.795 45.9618C148.701 43.566 148.668 37.468 145.405 37.2839Z" fill="#0A1628"/>
<path fill-rule="evenodd" clip-rule="evenodd" d="M114.994 24.9214C115.055 24.9821 115.109 25.13 115.104 25.2171C114.847 29.2527 115.075 33.3447 114.917 37.3692C116.068 36.7079 116.931 36.3537 118.2 36.0902C130.566 33.5215 134.002 49.0277 128.713 57.292C126.961 60.0294 124.1 61.9341 121.023 62.6243C116.372 63.4418 111.954 62.982 107.388 61.8887C107.396 51.9189 107.878 41.8712 107.377 31.8937C107.216 30.4295 106.662 28.5762 104.959 28.3494C103.965 28.217 103.625 28.1922 103.869 27.1008C104.27 26.915 105.481 26.7984 105.996 26.6771C108.95 25.9804 112.068 25.6817 114.994 24.9214ZM123.025 46.6411C122.798 43.4463 120.93 37.9733 116.81 38.7541C116.055 38.8512 115.673 38.9054 114.929 39.117C114.963 41.5749 114.892 44.072 114.878 46.5341C114.881 49.0007 114.9 51.4672 114.933 53.9336C114.953 55.9355 114.938 59.1205 115.19 61.0422C117.15 61.1867 118.425 61.2662 119.914 59.7401C122.83 56.3912 123.328 50.9082 123.025 46.6411Z" fill="#0A1628"/>
<path d="M167.674 35.4531C170.572 35.0755 173.734 35.9527 176.472 36.7155C176.494 36.9971 176.506 37.3248 176.506 37.6085C176.512 39.6219 176.72 41.7228 176.656 43.728C176.308 43.8066 175.811 43.9864 175.459 44.1036C174.56 41.05 172.603 37.3308 169.073 37.4967C167.968 37.5486 167.485 37.5396 166.64 38.3677C165.461 39.5233 165.124 41.5158 165.924 42.9762C167.511 45.2579 171.102 46.1289 173.507 47.3561C176.452 48.8589 178.125 50.8156 177.993 54.243C177.872 60.8604 172.73 63.054 166.953 63.0377C164.827 63.0447 160.158 62.5785 158.372 61.4659C158.212 59.0354 158.2 56.2099 158.172 53.7668C158.559 53.6205 159.005 53.4913 159.403 53.3667C159.595 53.7399 159.85 54.5073 160.033 54.9331C160.691 56.4603 161.486 57.9671 162.746 59.081C163.904 60.1226 165.437 60.6465 166.991 60.5322C169.484 60.3616 171.011 58.725 170.863 56.2086C170.688 53.2501 166.609 52.2619 164.373 51.3177C163.092 50.7765 162.031 50.2827 160.986 49.3697C159.635 48.2027 158.803 46.5462 158.673 44.7652C158.311 39.2594 162.499 35.7691 167.674 35.4531Z" fill="#0A1628"/>
<path fill-rule="evenodd" clip-rule="evenodd" d="M70.007 35.4492C73.0748 35.0954 77.0185 36.119 79.3455 38.1176C85.2266 43.1753 85.2868 54.2296 79.8413 59.6259C77.623 61.8243 75.025 62.6891 71.9927 63.0264C68.2595 63.0824 65.3332 62.8787 62.2991 60.2982C59.4862 57.8333 58.3218 54.233 58.0476 50.6218C57.4663 42.965 61.8493 35.9829 69.9731 35.4531L70.007 35.4492ZM70.6219 37.2912C68.1633 37.465 67.3832 39.3146 66.7928 41.4416C65.8459 44.8524 65.9866 48.7517 66.1052 52.2725C66.1986 55.0426 67.6137 61.5959 71.2786 61.2904C73.5699 61 74.3496 59.1485 75.0019 57.1988C76.2223 53.5509 76.8189 36.9948 70.6219 37.2912Z" fill="#0A1628"/>
<path d="M101.813 35.3501C103.228 35.1945 104.346 35.4184 105.556 36.1598C104.703 38.7051 103.771 40.9423 102.862 43.4185C102.378 43.0997 101.901 42.8073 101.36 42.5941C99.7869 41.9747 97.6625 41.8151 96.085 42.5152C95.7165 42.6787 95.2142 43.0175 95.0786 43.4072C94.611 44.7524 94.9905 56.3525 95.2606 58.133C95.3696 58.8518 95.6606 59.5212 95.9565 60.1791C97.3099 60.8743 98.048 60.7777 99.5213 60.9529L99.5277 62.4634C98.2314 62.3382 94.6317 62.4085 93.2347 62.4242C90.2702 62.4573 86.8184 62.325 83.8966 62.4585C83.8479 62.0596 83.8742 61.3833 83.8789 60.9603C86.15 60.5559 87.1043 60.3714 87.3786 57.6887C87.5097 56.4069 87.3827 55.0973 87.4369 53.8134C87.5615 50.8678 87.5935 47.9277 87.4615 44.9815C87.3862 43.5125 87.6398 41.181 86.7469 39.9346C86.0856 39.0116 84.9315 38.9034 83.874 38.7894C83.8541 38.4854 83.8692 38.0122 83.8696 37.6948C85.273 37.5912 86.819 37.0471 88.2211 36.8185C90.5728 36.435 92.8759 35.8467 95.2081 35.3977C95.1651 37.4259 95.0906 39.4535 94.9845 41.4794C96.2876 38.31 98.3901 36.0868 101.813 35.3501Z" fill="#0A1628"/>
<path d="M61.7949 36.0181C61.3963 36.2094 60.5983 36.4799 60.1594 36.6419C59.0354 33.7632 57.8707 30.5381 54.908 29.0939C53.1075 28.2162 51.5481 28.3278 49.6198 28.3303L45.7499 28.3401C45.5033 33.2816 45.3827 38.2286 45.3884 43.1762C46.3624 43.0453 47.8042 42.9883 48.7973 42.9757C52.29 42.931 52.7921 40.8012 53.5289 37.8405L55.1286 37.8032C55.1808 38.8538 55.1273 40.4642 55.1257 41.5584L55.1267 49.0063L55.1296 50.3957C54.6136 50.3641 54.0349 50.3792 53.5132 50.3815C52.2728 44.1091 50.2195 45.7018 45.3801 45.0487C45.409 47.9234 45.4225 50.779 45.6224 53.6491C45.7018 54.7894 45.7559 56.468 46.0073 57.5588C46.1576 58.2016 46.4207 58.8127 46.7847 59.3635C47.369 60.2307 47.9039 60.3826 48.9018 60.5503C49.6207 60.6711 50.3587 60.8138 51.0748 60.9549C51.0935 61.422 51.0838 61.9643 51.0876 62.4379C44.8852 62.3294 38.2322 62.3968 32.0162 62.4311C31.9996 61.9671 32.0184 61.4725 32.0284 61.0059C33.1827 60.6116 34.8524 60.5517 35.6296 59.798C37.2016 58.2737 37.1883 53.7862 37.272 51.7365C37.3948 48.0223 37.4353 44.3058 37.3941 40.5898C37.3837 38.9023 37.38 37.1838 37.27 35.4948C37.1323 33.3783 37.1547 30.9954 36.1803 29.0576C35.4396 27.5843 33.4718 27.3556 32 27.2975C32.0015 26.7633 32.0116 26.2291 32.0304 25.6953L49.328 25.7085C53.3704 25.7085 57.6162 25.7761 61.6389 25.6737L61.7949 36.0181Z" fill="#0A1628"/>
</svg>
