<svg width="309" height="88" viewBox="0 0 309 88" fill="none" xmlns="http://www.w3.org/2000/svg">
<path d="M47.5107 23.6715C50.2084 23.1724 56.0876 23.9494 58.5928 25.1559C62.393 26.9863 64.175 28.9721 65.6592 32.818C65.8816 32.4699 66.1061 32.1227 66.332 31.777C68.8841 27.8404 72.9116 25.0962 77.5078 24.1637C88.22 21.9454 99.7627 26.0639 101.9 37.9303C102.848 43.1935 102.664 50.985 99.6514 55.5611C99.6407 54.4657 99.8868 49.4253 99.3115 48.8727C99.1889 48.9063 99.0555 48.9063 99.0547 49.0875C99.0298 54.1451 97.7883 56.8102 92.3369 57.0699C89.6764 57.1966 87.1085 57.1613 84.5322 57.1549C84.6397 48.6024 84.5386 39.8123 84.5371 31.2418C85.2827 31.2455 87.8547 31.456 88.3984 31.0035L88.3857 30.8473C88.1064 30.5536 87.3778 30.5487 87.0186 30.5973C85.527 30.7988 77.4481 30.3287 76.6738 30.8024L76.7109 31.0299C77.1899 31.4221 79.7189 31.2532 80.5029 31.2428L80.5049 57.1608L77.373 57.1627L76.9131 57.1969C76.6604 57.4393 76.7078 57.3327 76.6465 57.6334C76.945 57.9099 96.0912 57.7916 98.1631 57.7916C93.2741 64.2486 83.3332 65.6214 75.9512 63.649C71.9406 62.5774 68.9034 60.5306 66.5254 57.1412C66.4665 59.2973 66.4918 61.5501 66.4854 63.7135L32.001 63.7154L32.0195 61.8531C35.6486 57.8517 39.4484 53.9728 43.0977 49.9967C45.5593 47.3146 54.2243 39.314 51.0615 35.3824C50.6594 34.8824 50.0745 34.5636 49.4365 34.4967C48.6698 34.4216 47.9052 34.6596 47.3164 35.1568C46.0127 36.2414 45.7857 38.1125 45.6396 39.6783L32.5176 39.6715C32.4523 29.8726 38.0302 24.5439 47.5107 23.6715ZM63.0801 45.693C60.5724 48.745 59.098 50.1628 56.1953 52.94L57.4014 52.9117L64.3896 52.9127C63.848 50.6778 63.2858 48.3235 63.1826 46.0084C63.1742 45.8217 63.1904 45.8553 63.0801 45.693Z" fill="#0A1628"/>
<path d="M252.536 49.5527C255.056 49.4213 255.39 50.8439 255.918 50.8037C255.952 50.4258 255.96 49.9102 256.158 49.6035C256.416 49.5734 256.323 49.5596 256.57 49.749C256.776 51.622 256.614 53.555 256.671 55.4404C256.739 57.77 256.19 60.3032 253.522 60.8467C252.33 61.0894 250.243 60.57 250.026 59.21L250.162 59.0322C250.615 59.0966 250.592 59.1957 250.977 59.5566C252.764 60.6042 254.597 60.4393 255.608 58.3799C256.051 57.4793 255.987 56.6985 256.002 55.7227C255.351 56.4154 254.769 56.9253 253.826 57.1787C252.988 57.407 252.091 57.2801 251.349 56.8281C248.474 55.1156 248.833 50.4171 252.536 49.5527ZM205.086 30.6855C205.993 30.5687 209.483 30.6085 210.601 30.6221C213.987 30.6123 216.47 30.5448 219.902 30.8027C225.132 31.1959 228.016 35.9912 225.288 40.5605C224.155 42.4581 220.329 43.4154 218.079 43.7012C219.34 43.9249 221.715 44.2742 222.761 44.9395C225.937 46.9612 225.442 51.8591 226.018 55.1113C226.168 55.9679 226.29 56.1791 226.754 56.8604C227.534 58.0061 229.224 56.7871 229.667 57.3486L229.584 57.5166C229.226 57.7323 228.741 57.8628 228.325 57.9004C224.045 58.2869 222.066 57.4457 221.428 53.1133C220.3 45.7712 221.556 44.058 213.028 44.1172L213.023 57.168C213.851 57.1815 216.498 56.9909 217.024 57.4004C216.89 57.6238 216.725 57.8032 216.431 57.8008C213.187 57.7745 209.941 57.7967 206.696 57.7861C206.25 57.7847 205.754 57.8125 205.317 57.7314L205.226 57.4053C205.682 57.0345 208.359 57.1606 209.118 57.1641L209.123 31.2188C208.009 31.2067 206.582 31.3515 205.465 31.1748C205.227 31.1371 205.173 30.9134 205.062 30.6895L205.086 30.6855ZM152.492 30.6934C154.234 30.4049 165.803 30.5675 167.484 30.8828C170.778 31.5015 173.415 33.0344 175.321 35.8369C177.635 39.2377 178.214 43.7515 177.451 47.7383C176.795 51.1715 174.916 53.9056 172.044 55.8525C170.814 56.5842 169.471 57.1076 168.069 57.4023C167.173 57.5951 166.262 57.7145 165.346 57.7578C162.103 57.93 156.301 57.7421 152.833 57.7129C152.723 57.6429 152.631 57.5826 152.555 57.5332L152.582 57.4414C153.286 57.0465 155.398 57.1665 156.271 57.1797V31.2217C155.23 31.2061 153.713 31.3996 152.691 31.1074C152.654 31.0959 152.522 30.7635 152.492 30.6934ZM138.18 29.8457C138.997 30.3758 146.402 53.7732 147.543 56.2812C147.599 56.4056 147.825 57.0327 147.883 57.1826C148.415 57.1818 150.592 57.1381 150.963 57.2568L150.995 57.5361C150.948 57.5904 150.897 57.634 150.836 57.6729C150.587 57.832 140.684 57.8994 139.827 57.7168L139.779 57.4697C140.204 56.9804 142.786 57.1634 143.524 57.1729L140.709 48.9395L138.77 48.9492L132.486 48.9404C131.834 50.8667 130.467 54.3512 130.367 56.2783C130.296 57.6517 133.204 56.7972 133.965 57.4209L133.964 57.6289C133.502 57.9418 127.067 57.7766 126.161 57.6455L126.079 57.4922C126.962 57.1065 127.597 57.0978 128.554 56.9668C129.742 55.676 130.807 51.6905 131.423 49.8408L135.68 37.0674C136.258 35.3084 137.441 31.3513 138.18 29.8457ZM186.413 30.625L200.521 30.6338C200.555 31.7701 201.108 36.4378 200.732 37.1338C199.931 36.8207 200.556 34.5324 198.885 32.9131C196.492 30.5935 190.674 31.2078 187.305 31.2227V43.6143C189.285 43.6131 192.291 44.0237 193.748 42.3018C194.352 41.5882 194.523 39.1142 194.986 38.6885C195.41 39.2148 195.139 47.5241 195.12 48.8203C195.12 48.8902 194.998 48.979 194.935 49.0371C194.859 48.9841 194.769 48.9211 194.665 48.8477C194.559 47.6149 194.583 46.1337 193.583 45.2129C192.157 43.8988 189.168 44.22 187.315 44.2285L187.298 46.1641L187.308 57.1719C188.46 57.1778 189.664 57.2079 190.787 57.1826C195.392 57.0792 201.44 57.7801 201.725 51.4863C201.736 51.224 201.907 50.2024 202.031 49.9609L202.196 49.9697C202.583 50.7304 202.434 56.5083 202.429 57.792L186.638 57.7842C185.613 57.7841 180.847 57.8647 180.114 57.7559L179.97 57.5039L180.063 57.2705C180.605 57.0768 182.634 57.1646 183.338 57.1729V31.2227C182.387 31.2077 181.048 31.3742 180.125 31.1396C179.996 31.1067 179.927 30.8497 179.856 30.6904C180.715 30.5579 185.312 30.6238 186.413 30.625ZM101.271 30.6445C107.779 30.4472 115.314 30.6266 121.901 30.6367C121.933 31.8088 122.564 36.5869 122.15 37.2139C121.604 36.8068 121.626 34.0973 120.29 32.9395C117.47 30.4967 112.25 31.2076 108.708 31.2266L108.707 43.6143C110.211 43.6239 112.196 43.7536 113.594 43.3232C116.138 42.5398 115.511 40.2869 116.284 38.7178L116.458 38.7529C116.681 39.0939 116.729 48.367 116.441 48.9756L116.249 49.0361C115.672 48.4319 116.369 46.4939 114.987 45.2119C113.571 43.8969 110.621 44.2174 108.709 44.2314L108.706 46.291V57.1738C109.882 57.1793 111.104 57.2063 112.255 57.1826C116.77 57.0895 122.842 57.7292 123.122 51.5518C123.136 51.2485 123.311 50.225 123.446 49.9404L123.626 49.9316C123.997 50.6506 123.867 56.4795 123.871 57.7871C121.737 57.7865 101.771 57.8873 101.378 57.6396L101.37 57.416C101.833 57.0075 104.056 57.1641 104.765 57.1758L104.766 31.2227C103.804 31.188 102.854 31.3274 101.894 31.2344C101.34 31.1807 101.387 31.1029 101.271 30.6445ZM263.828 47.0928C264.064 47.6032 263.962 49.0641 263.946 49.6631C264.475 49.6462 265.285 49.5253 265.657 49.9434L265.582 50.1387C265.147 50.4299 264.496 50.341 263.957 50.3252C263.938 51.6721 263.624 55.8865 264.419 56.7227C264.89 57.0176 265.53 56.9011 266.116 56.876L266.297 57.123C266.225 57.2465 266.097 57.3779 265.997 57.4873C262.309 58.9641 263.254 52.2766 263.232 50.3408C262.575 50.3672 262.256 50.4621 261.747 50.1006L261.789 49.8818C261.83 49.8462 261.858 49.8242 261.902 49.7939L261.926 49.7793C262.198 49.5981 262.9 49.6395 263.254 49.6406C263.364 48.7464 263.272 47.8806 263.429 46.9287L263.828 47.0928ZM270.3 49.5576C274.25 49.2941 273.579 53.0733 273.644 55.6602C273.653 56.066 273.753 57.1542 273.5 57.46L273.153 57.4473C272.853 57.1086 272.985 56.9987 272.971 56.4326C272.187 56.486 269.745 59.3715 267.633 56.2168C266.54 52.6538 271.222 53.3411 272.628 52.5322C273.511 51.3933 271.862 50.209 270.806 50.1074C269.845 50.0152 269.114 51.2351 268.208 51.1084C268.058 50.798 268.073 50.9296 268.179 50.5693C268.911 49.9334 269.36 49.7585 270.3 49.5576ZM243.319 45.9814C243.648 46.0096 243.717 46.0354 244.014 46.1621C244.121 46.8962 244.068 57.1502 243.962 57.3896C243.643 57.4926 243.771 57.4865 243.44 57.4092C243.227 57.1176 243.286 56.4797 243.287 56.0918C241.659 57.6205 240.25 58.237 238.206 56.8809C233.966 53.1491 239.144 46.429 243.294 51.1143L243.319 45.9814ZM246.693 49.5605C246.868 49.595 247.094 49.6618 247.271 49.708C247.505 50.0344 247.408 56.8019 247.324 57.6104C246.947 57.5284 246.996 57.5913 246.729 57.3535C246.551 55.8512 246.667 51.2848 246.693 49.5605ZM259.873 49.6934C260.106 50.0737 259.988 56.5925 259.983 57.5703L259.512 57.4912C259.223 57.0265 259.352 50.6163 259.357 49.5518L259.873 49.6934ZM276.815 46.1016C277.115 46.5273 276.963 56.2113 276.958 57.5303C276.687 57.5334 276.5 57.5617 276.279 57.4004C276.164 56.8991 276.208 54.4219 276.209 53.7646L276.223 45.9814L276.815 46.1016ZM173.275 41.292C172.328 33.0366 167.714 30.9845 160.151 31.2471L160.152 57.1709C163.729 57.1874 167.284 57.49 170.046 54.7461C170.231 54.5615 170.412 54.3728 170.59 54.1816C173.41 50.5564 173.78 45.702 173.275 41.292ZM240.702 56.9365C244.933 55.3952 243.447 49.8536 239.814 50.1533C235.704 51.9079 237.047 57.1318 240.702 56.9365ZM272.883 53.4922C272.665 53.3115 272.727 53.3638 272.38 53.3945C270.825 53.6125 265.878 54.3402 269.068 56.7822C271.357 57.3787 273.475 55.6733 272.883 53.4922ZM252.527 50.1484C251.467 50.6148 250.776 51.0164 250.323 52.2021C250.004 53.0607 250.035 54.0105 250.408 54.8467C251.022 56.2007 252.171 56.6368 253.562 56.5508C254.569 56.1469 255.232 55.7103 255.681 54.6416C256.015 53.8301 256.014 52.9192 255.679 52.1084C255.144 50.8155 253.915 50.0671 252.527 50.1484ZM136.499 36.666C135.088 40.4382 134.059 44.6245 132.673 48.2988L136.955 48.3008L140.557 48.2949C140.207 47.2925 136.714 36.8869 136.499 36.666ZM246.737 46.3975C246.958 46.2254 247.274 46.2523 247.464 46.459C247.654 46.6659 247.653 46.9836 247.462 47.1895C247.325 47.3382 247.115 47.3973 246.92 47.3418C246.725 47.286 246.576 47.1251 246.538 46.9258C246.5 46.7265 246.577 46.522 246.737 46.3975ZM259.397 46.3818C259.561 46.2705 259.773 46.2598 259.948 46.3545C260.122 46.4491 260.23 46.6336 260.225 46.832C260.221 47.03 260.106 47.2094 259.929 47.2969C259.678 47.4196 259.376 47.3278 259.235 47.0869C259.096 46.846 259.167 46.5383 259.397 46.3818ZM213.028 31.2246V43.4834C215.824 43.493 218.289 43.7231 220.582 41.9072C222.12 40.1269 222.296 38.7807 222.142 36.4795C221.774 30.9847 217.155 31.1848 213.028 31.2246Z" fill="#0A1628"/>
</svg>
