<svg width="210" height="88" viewBox="0 0 210 88" fill="none" xmlns="http://www.w3.org/2000/svg">
<path d="M34.002 17.0352C35.6958 17.0875 37.3849 17.4988 39.0558 17.666C42.7413 18.0348 46.3568 18.8276 49.9942 19.377L62.505 21.1572C64.4432 21.4264 66.9097 21.6907 68.8028 22.0508C69.2837 22.138 69.7384 22.3356 70.13 22.6279C70.7691 23.1099 71.1924 23.8252 71.3067 24.6172C71.4353 25.5627 71.3639 28.864 71.3624 29.9268L71.3565 40.7334L71.3595 55.835V60.6182C71.3595 62.6614 71.6779 65.0263 69.2882 65.8174C68.0893 66.2141 66.2909 66.348 65.0128 66.5107C57.0391 67.5505 49.0373 68.8504 41.0597 69.8887C38.8481 70.2123 36.7503 70.7744 34.5108 70.9561C33.3588 71.0495 32.272 70.423 32.131 69.1934C31.9285 67.4273 32.0206 65.4591 32.0226 63.666L32.0304 52.6025L32.0313 30.0771C32.0339 26.5866 32.0108 23.0956 32.0255 19.6055C32.0314 18.1873 32.5037 17.2572 34.002 17.0352ZM46.8009 55.9434L41.9552 56.3447C41.0872 57.5555 40.0752 58.9676 39.128 60.1064C39.5361 60.5811 39.9771 61.1159 40.4142 61.5547L42.8614 61.2822C44.9955 61.0283 47.2208 60.8001 49.3419 60.5117C49.7252 59.947 50.214 59.4542 50.6817 58.9561C49.594 57.944 48.8512 56.9841 47.9171 55.8369L46.8009 55.9434ZM63.3888 54.4512C63.3141 54.3612 62.6847 54.4554 62.5714 54.4736C61.4097 54.575 59.9682 54.6479 58.8409 54.7881C58.4551 55.482 58.1638 55.9984 57.6954 56.6455C57.3219 57.1616 56.7575 57.8161 56.4552 58.3418C56.8538 58.8056 57.1573 59.2021 57.669 59.542L59.3282 59.3584C60.4785 59.2277 64.2842 59.0341 65.0001 58.2988C65.0599 58.2368 65.5507 57.4696 65.6407 57.3262C64.8397 56.3802 64.1659 55.4003 63.3888 54.4512ZM36.6671 47.0215C36.6742 50.455 36.6221 54.0364 36.6808 57.458C37.032 57.8596 37.6236 58.4973 37.9249 58.9062L38.6759 57.9053C39.5304 56.7676 40.1583 55.8434 40.9552 54.6807C40.9526 52.92 40.917 51.027 40.9513 49.2754C40.3496 48.3649 38.6889 46.1111 37.9268 45.4023L36.6671 47.0215ZM55.4825 45.3145C55.2196 45.6963 54.7923 46.2777 54.5655 46.6592C54.5668 49.6954 54.5236 52.8397 54.5714 55.8662L55.5147 57.1816C55.6377 56.9992 56.0898 56.3591 56.17 56.2012C56.8943 54.9309 57.3022 54.5972 58.045 53.5303C58.0716 51.9293 58.2711 49.6826 57.838 48.1943C57.7955 48.0617 55.5586 45.3456 55.4825 45.3145ZM66.3194 45.2061C65.5494 46.5192 65.0367 47.0348 64.213 48.1758C64.1942 49.8319 64.1918 51.4884 64.2052 53.1445C65.0147 53.9983 65.3934 54.4194 66.0108 55.4072C66.1609 55.6785 66.2778 55.9013 66.4073 56.1826C66.5381 55.9102 67.1639 54.7442 67.171 54.5752C67.2742 51.8592 67.345 49.0109 67.1349 46.3086C67.1181 46.0931 66.5447 45.3068 66.3194 45.2061ZM133.016 39.4258C134.051 39.4851 135.554 39.4431 136.626 39.4473L136.621 44.4414L136.618 54.2314H133.014C132.996 53.4754 133.006 52.7906 133.027 52.0342C130.944 54.9523 126.468 55.3576 124.088 52.6738C122.253 50.6038 122.861 47.3671 122.811 44.7881C122.78 43.2188 122.688 40.928 122.843 39.4287C124.076 39.4553 125.342 39.4452 126.577 39.4492L126.554 45.2939C126.552 46.253 126.459 48.1683 126.66 48.9941C127.589 52.7989 132.537 51.5758 132.854 47.7539C133.094 44.8603 133.002 42.261 133.016 39.4258ZM154.416 39.2422C158.647 38.8223 162.186 41.61 162.523 45.9033C162.572 46.5259 162.526 47.1513 162.493 47.7744C158.826 47.8259 155.071 47.788 151.398 47.79C151.472 48.2701 151.535 48.7793 151.752 49.2148C153.13 51.9781 157.519 52.418 158.651 49.2061C159.141 49.3486 159.722 49.4825 160.222 49.6104C160.888 49.7565 161.577 49.972 162.234 50.166C161.12 52.825 159.433 53.959 156.568 54.3711C152.119 55.011 148.306 52.4296 147.851 47.8535C147.625 45.5891 148.138 43.4482 149.581 41.6611C150.921 39.9574 152.288 39.4756 154.416 39.2422ZM142.836 35.1748C142.793 36.566 142.819 38.0462 142.835 39.4385C144.095 39.4271 145.382 39.4446 146.644 39.4482L146.63 42.6094C145.41 42.6617 144.068 42.628 142.821 42.6562C142.812 43.2971 142.76 44.2667 142.815 44.8867C143.083 47.9132 141.508 52.5302 146.551 50.9639C146.665 52.0549 146.723 53.0483 146.777 54.1445C143.595 54.8911 139.894 54.4594 139.313 50.5078C139.149 49.3996 139.217 48.183 139.218 47.0557L139.227 41.5879L139.224 37.8125C139.219 37.0872 139.17 35.9834 139.257 35.3105C139.503 35.1587 139.67 35.2088 140.004 35.1953C140.948 35.1982 141.892 35.1914 142.836 35.1748ZM100.631 39.4268C101.823 39.4697 103.163 39.4439 104.366 39.4463L104.357 54.2285C103.127 54.2516 101.836 54.233 100.602 54.2344C100.552 50.1891 100.632 46.1268 100.593 42.0801C100.585 41.2488 100.552 40.24 100.631 39.4268ZM114.578 39.2373C116.012 39.0175 118.044 39.4739 119.068 40.5508C120.97 42.5479 120.644 45.1849 120.641 47.7266L120.63 54.2266L117.02 54.2334C116.989 51.1097 117.152 47.7458 116.917 44.6289C116.824 43.3842 115.245 42.5898 114.133 42.5645C113.191 42.543 112.455 42.9397 111.772 43.584C110.343 45.2315 110.575 48.1131 110.576 50.1602L110.582 54.2305L106.806 54.2373V39.4365L110.59 39.4443C110.598 40.2444 110.583 41.0445 110.548 41.8438C111.685 40.1321 112.534 39.5471 114.578 39.2373ZM172.431 39.2031C173.784 39.1799 175.391 39.5094 176.374 40.502C178.32 42.4667 177.978 45.2412 177.976 47.7812L177.963 54.2363L174.204 54.2314L174.211 48.2676C174.213 47.2359 174.318 45.6047 174.094 44.6396C173.531 42.2264 170.908 42.078 169.258 43.4531C167.368 45.6228 167.947 51.3073 167.944 54.2275L164.204 54.2363C164.141 49.3464 164.199 44.3255 164.199 39.4248C165.24 39.4896 166.868 39.4418 167.954 39.4453C167.951 40.2487 167.94 41.0521 167.925 41.8555C169.019 40.1309 169.915 39.5446 171.945 39.2344C172.106 39.217 172.268 39.2068 172.431 39.2031ZM93.5792 33.6865C94.293 33.8089 97.2079 33.7535 98.086 33.751L98.0802 54.2305L94.4327 54.2314C94.4063 50.0105 94.3739 45.4802 94.4522 41.2744C93.1701 43.2756 92.0629 46.5155 91.1261 48.7715C90.3732 50.5843 89.6096 52.419 88.8536 54.2324L85.7315 54.2344C85.345 53.0708 84.7172 51.8887 84.2911 50.7314C83.1081 47.5195 81.5281 44.3538 80.3858 41.1426C80.3459 41.6736 80.3541 42.3189 80.3487 42.8613L80.3429 54.2285L76.5255 54.2305L76.5274 33.7441C78.0417 33.7576 79.5561 33.7542 81.0704 33.7344C81.2497 34.2464 81.4569 34.7388 81.6729 35.2363C83.179 38.7046 84.5588 42.2231 86.0108 45.7139C86.4289 46.7188 87.1212 47.6438 87.3624 48.6973C87.9984 46.9255 89.0096 44.7106 89.753 42.9307L93.5792 33.6865ZM41.0079 41.4678C40.3777 42.2823 39.6455 43.2169 38.9532 43.9814L41.0069 46.5273C43.5769 46.4651 46.1473 46.4173 48.7179 46.3848C48.8288 46.3418 50.5531 44.2724 50.8097 43.9736C50.1591 43.2743 49.333 42.414 48.8126 41.6279C46.2275 41.556 43.5711 41.5795 41.0079 41.4678ZM158.536 45.1084C157.927 42.6502 156.79 41.9761 154.312 42.165C152.661 42.7391 151.953 43.4095 151.466 45.1084L155.789 45.1211L158.536 45.1084ZM66.3585 31.9199C65.6432 32.993 65.0576 33.9308 64.2003 34.8965C64.2008 36.4486 64.166 38.1427 64.2071 39.6826C64.9966 40.5945 65.2702 41.0905 65.8956 42.1113L66.3976 42.9082C66.673 42.4702 66.9459 42.0237 67.2403 41.5986L67.2481 36.5527C67.2504 35.1708 67.5308 32.8714 66.3585 31.9199ZM55.5001 30.876C55.2309 31.2311 54.7878 31.7839 54.5626 32.1416C54.5643 35.0915 54.4831 38.4677 54.5802 41.3809C54.8894 41.8351 55.2535 42.3434 55.544 42.8018L56.2882 41.7617C56.9334 40.7975 57.3816 40.2712 58.0802 39.3682C58.1332 35.7781 58.6101 34.5611 56.1759 31.8018C56.0011 31.6034 55.8059 31.1722 55.6143 30.9805C55.578 30.9438 55.54 30.9086 55.5001 30.876ZM51.628 30.5352C50.9905 31.3035 49.2529 33.1314 48.8976 33.7832C48.8753 35.2913 48.8113 37.6558 48.9102 39.1309C49.573 39.9955 50.3579 40.9747 50.9786 41.8555L51.6378 42.748L52.6358 41.3867C52.7678 40.162 52.8233 32.8927 52.5831 31.9482C52.4761 31.5283 52.0313 30.98 51.7589 30.6465C51.7199 30.599 51.6804 30.5668 51.628 30.5352ZM102.492 33.1523C103.734 33.1364 104.753 34.132 104.765 35.373C104.776 36.6139 103.776 37.628 102.535 37.6357C101.3 37.6433 100.29 36.6501 100.278 35.415C100.267 34.1801 101.257 33.1684 102.492 33.1523ZM57.6944 28.4824C57.2 28.7866 56.8363 29.2257 56.4425 29.6523C57.3234 30.8578 58.0589 31.7763 58.8634 33.0479C60.3383 33.1709 61.9652 33.2708 63.4239 33.4336L63.9395 32.7148C64.4836 32.0335 65.127 31.3131 65.6446 30.6475C65.2283 29.9755 64.962 29.3259 64.1231 29.2148C62.0248 28.9381 59.8003 28.6299 57.6944 28.4824ZM40.5333 26.2988C40.0579 26.8566 39.6241 27.3494 39.1202 27.8809C39.9141 28.8851 41.255 30.6244 41.9571 31.6846C43.8312 31.8408 46.1217 31.966 47.9542 32.1865C48.197 31.8695 48.4488 31.5291 48.7042 31.2246C49.3947 30.3554 49.8996 29.8114 50.6954 29.0381C50.1838 28.5019 49.7822 28.0804 49.3272 27.499C47.7038 27.2961 46.0785 27.1054 44.4522 26.9268C43.1114 26.7737 41.8921 26.6994 40.6007 26.3193L40.5333 26.2988Z" fill="#0A1628"/>
</svg>
