<svg width="128" height="20" viewBox="0 0 128 20" fill="none" xmlns="http://www.w3.org/2000/svg">
<path d="M10.5146 0L12.9968 7.63932H21.0292L14.5308 12.3607L17.013 20L10.5146 15.2786L4.01623 20L6.49839 12.3607L0 7.63932H8.03246L10.5146 0Z" fill="#C9A96E"/>
<path d="M37.2413 0L39.7235 7.63932H47.7559L41.2576 12.3607L43.7397 20L37.2413 15.2786L30.7429 20L33.2251 12.3607L26.7267 7.63932H34.7592L37.2413 0Z" fill="#C9A96E"/>
<path d="M63.968 0L66.4502 7.63932H74.4827L67.9843 12.3607L70.4664 20L63.968 15.2786L57.4696 20L59.9518 12.3607L53.4534 7.63932H61.4859L63.968 0Z" fill="#C9A96E"/>
<path d="M90.6947 0L93.1769 7.63932H101.209L94.711 12.3607L97.1931 20L90.6947 15.2786L84.1963 20L86.6785 12.3607L80.1801 7.63932H88.2126L90.6947 0Z" fill="#C9A96E"/>
<path d="M117.421 0L119.904 7.63932H127.936L121.438 12.3607L123.92 20L117.421 15.2786L110.923 20L113.405 12.3607L106.907 7.63932H114.939L117.421 0Z" fill="#C9A96E"/>
</svg>
