<svg width="176" height="40" viewBox="0 0 176 40" fill="none" xmlns="http://www.w3.org/2000/svg">
<g clip-path="url(#clip0_1333_8746)">
<path d="M35.3372 0.194824V32.4087H8.24625V30.1359H32.9482V17.4997H8.24625V15.1038H32.9482V2.41844H0.207031V0.194824H35.3372Z" fill="#C9A96E"/>
<path d="M35.3372 37.5863V39.7934H0.207031V7.60425H27.2981V9.8525H2.56997V22.4886H27.2981V24.9091H2.56997V37.5863H35.3372Z" fill="#2C4888"/>
<path d="M72.7341 0.00610352C75.5068 0.00610352 77.2684 0.909179 78.5066 2.76356L77.3123 3.56789C76.3794 2.27149 75.1411 1.32716 72.6735 1.32713C70.206 1.32713 68.5841 2.27965 68.5841 4.34737C68.5843 6.75945 70.6336 7.36674 73.223 7.90827C76.5885 8.58928 78.8208 9.56563 78.8209 12.7325C78.8209 14.8822 77.2163 17.1225 72.9353 17.1226C70.084 17.1226 68.0084 16.1957 66.6917 14.366L67.9127 13.5617C69.0286 14.8745 70.2668 15.8015 72.9433 15.8016C76.1258 15.8016 77.3203 14.4068 77.3204 12.7822C77.3204 10.7555 76.0739 9.77877 72.7082 9.17159C69.3688 8.5644 67.0846 7.342 67.0844 4.34737C67.0844 1.98432 68.7147 0.00622262 72.7341 0.00610352Z" fill="#C9A96E"/>
<path fill-rule="evenodd" clip-rule="evenodd" d="M169.65 0.00610352C173.486 0.00622043 175.997 2.27155 175.997 7.56381V9.56576C175.997 14.8825 173.486 17.1225 169.65 17.1226C165.814 17.1226 163.302 14.8826 163.302 9.56576V7.56381C163.302 2.27141 165.814 0.00610352 169.65 0.00610352ZM169.658 1.31914C166.729 1.31926 164.811 3.02645 164.811 7.56381V9.56576C164.811 14.1276 166.729 15.8094 169.658 15.8095C172.588 15.8095 174.506 14.1278 174.506 9.56576V7.56381C174.506 3.02629 172.588 1.31914 169.658 1.31914Z" fill="#C9A96E"/>
<path d="M94.5239 1.4674H88.8476V16.9752H87.3399V1.4674H81.6627V0.154363H94.5239V1.4674Z" fill="#C9A96E"/>
<path fill-rule="evenodd" clip-rule="evenodd" d="M141.26 16.9752H139.682L138.208 12.8807H130.692L129.244 16.9752H127.641L133.752 0.154363H135.148L141.26 16.9752ZM131.163 11.5677H137.746L134.459 2.42709L131.163 11.5677Z" fill="#C9A96E"/>
<path d="M156.17 14.2675V0.154363H157.67V16.9752H156.223L147.311 2.98462V16.9752H145.802V0.154363H147.233L156.17 14.2675Z" fill="#C9A96E"/>
<path d="M62.3058 1.4674H53.2899V7.61264H61.5301V8.92567H53.2899V15.6542H62.3058V16.9663H51.7822V0.154363H62.3058V1.4674Z" fill="#C9A96E"/>
<path d="M109.513 1.4674H100.497V7.61264H108.737V8.92567H100.497V15.6542H109.513V16.9663H98.9882V0.154363H109.513V1.4674Z" fill="#C9A96E"/>
<path d="M125.452 1.4674H116.436V7.99882H124.676V9.31097H116.436V16.9663H114.927V0.154363H125.452V1.4674Z" fill="#C9A96E"/>
<path d="M62.3838 25.623H54.4321V30.0619H61.6081V32.4988H54.4321V37.545H62.3838V39.982H51.4238V23.1611H62.3838V25.623Z" fill="#2C4888"/>
<path d="M68.2435 37.545H76.1952V39.982H65.2353V23.1611H68.2435V37.545Z" fill="#2C4888"/>
<path d="M81.2873 30.0619H88.1231V23.1611H91.1314V39.982H88.1231V32.4988H81.2873V39.982H78.2791V23.1611H81.2873V30.0619Z" fill="#2C4888"/>
<path fill-rule="evenodd" clip-rule="evenodd" d="M108.448 39.982H105.257L104.036 36.4948H97.5843L96.3634 39.982H93.1636L99.3805 23.1611H102.231L108.448 39.982ZM98.4214 34.0578H103.19L100.81 27.2565L98.4214 34.0578Z" fill="#2C4888"/>
<path d="M114.49 35.1826L118.144 23.1611H120.917L124.649 35.2563L127.395 23.1611H130.604L126.384 39.982H123.455L119.539 27.7403L115.659 39.982H112.756L108.535 23.1611H111.744L114.49 35.1826Z" fill="#2C4888"/>
<path fill-rule="evenodd" clip-rule="evenodd" d="M145.959 39.982H142.768L141.547 36.4948H135.095L133.874 39.982H130.674L136.891 23.1611H139.742L145.959 39.982ZM135.932 34.0578H140.701L138.32 27.2565L135.932 34.0578Z" fill="#2C4888"/>
<path fill-rule="evenodd" clip-rule="evenodd" d="M154.094 23.1611C158.218 23.1611 160.677 24.8438 160.677 28.1833C160.677 30.4971 159.509 31.9903 157.442 32.6959L161.253 39.982H157.93L154.486 33.1558H151.016V39.982H148.008V23.1611H154.094ZM151.016 30.7188H153.893C156.431 30.7188 157.677 30.0869 157.677 28.1833C157.677 26.2797 156.431 25.623 153.893 25.623H151.016V30.7188Z" fill="#2C4888"/>
<path d="M168.69 29.8896L172.291 23.1611H175.762L170.189 32.9587V39.982H167.181V32.9587L161.61 23.1611H165.115L168.69 29.8896Z" fill="#2C4888"/>
</g>
<defs>
<clipPath id="clip0_1333_8746">
<rect width="176" height="40" fill="white"/>
</clipPath>
</defs>
</svg>
